<?xml version="1.0" encoding="UTF-8"?>
<!DOCTYPE svg PUBLIC "-//W3C//DTD SVG 1.1//EN" "http://www.w3.org/Graphics/SVG/1.1/DTD/svg11.dtd">
<svg xmlns="http://www.w3.org/2000/svg" version="1.1" width="602px" height="284px" style="shape-rendering:geometricPrecision; text-rendering:geometricPrecision; image-rendering:optimizeQuality; fill-rule:evenodd; clip-rule:evenodd" xmlns:xlink="http://www.w3.org/1999/xlink">

<g><path style="opacity:1" fill="#f7e7e3" d="M 111.5,15.5 C 112.167,15.5 112.5,15.8333 112.5,16.5C 111.872,19.09 110.705,21.4234 109,23.5C 107.989,24.3366 106.822,24.67 105.5,24.5C 105.5,21.5 105.5,18.5 105.5,15.5C 107.5,15.5 109.5,15.5 111.5,15.5 Z"/></g>
<g><path style="opacity:1" fill="#f7e7e3" d="M 103.5,14.5 C 103.5,16.8333 103.5,19.1667 103.5,21.5C 99.1667,21.8333 97.1667,19.8333 97.5,15.5C 99.2082,13.4876 101.208,13.1542 103.5,14.5 Z"/></g>
<g><path style="opacity:1" fill="#f7e7e3" d="M 120.5,22.5 C 118.101,28.206 113.768,31.206 107.5,31.5C 108.418,26.9966 110.418,22.9966 113.5,19.5C 116.751,18.0408 119.085,19.0408 120.5,22.5 Z"/></g>
<g><path style="opacity:1" fill="#f7e7e3" d="M 93.5,17.5 C 95.2475,19.4389 96.9142,21.6056 98.5,24C 101.281,24.1396 103.447,25.3063 105,27.5C 105.765,31.8816 105.265,36.0482 103.5,40C 104.132,43.141 105.465,45.9744 107.5,48.5C 103.733,49.7947 99.7329,50.4613 95.5,50.5C 92.4816,50.3354 89.4816,50.502 86.5,51C 82.5,53.6667 78.5,56.3333 74.5,59C 64.63,67.2027 55.7966,76.3694 48,86.5C 43.8334,93.2576 42.5001,100.591 44,108.5C 46.1107,114.936 49.1107,120.936 53,126.5C 57.8824,130.204 61.3824,134.871 63.5,140.5C 71.6876,147.521 78.1876,155.854 83,165.5C 83.9308,176.573 83.5975,187.573 82,198.5C 80.3667,201.7 78.2001,204.534 75.5,207C 62.855,215.151 49.855,222.484 36.5,229C 28.9577,235.566 27.4577,243.4 32,252.5C 42.7141,262.843 55.2141,270.01 69.5,274C 73.9585,275.886 77.6252,278.719 80.5,282.5C 68.5,282.5 56.5,282.5 44.5,282.5C 39.0767,277.944 33.0767,274.11 26.5,271C 22.6311,267.466 19.1311,263.633 16,259.5C 8.86994,243.146 11.7033,228.979 24.5,217C 37.7176,209.807 50.5509,201.974 63,193.5C 64.7255,191.772 66.0589,189.772 67,187.5C 67.6667,182.5 67.6667,177.5 67,172.5C 65.2342,170.404 63.9009,168.071 63,165.5C 50.2029,151.235 38.8696,135.902 29,119.5C 27.9207,116.937 27.4207,114.271 27.5,111.5C 27.5124,104.761 28.1791,98.0947 29.5,91.5C 29.9439,84.3312 32.4439,77.9979 37,72.5C 43.1705,67.0245 48.6705,61.0245 53.5,54.5C 62.0489,48.1099 70.7156,41.9432 79.5,36C 83.5578,29.3899 88.2245,23.2233 93.5,17.5 Z"/></g>
<g><path style="opacity:1" fill="#f9d7b9" d="M 103.5,14.5 C 106.385,14.1936 109.052,14.5269 111.5,15.5C 109.5,15.5 107.5,15.5 105.5,15.5C 105.5,18.5 105.5,21.5 105.5,24.5C 106.822,24.67 107.989,24.3366 109,23.5C 110.705,21.4234 111.872,19.09 112.5,16.5C 113.404,17.209 113.737,18.209 113.5,19.5C 110.418,22.9966 108.418,26.9966 107.5,31.5C 113.768,31.206 118.101,28.206 120.5,22.5C 121.756,24.7257 121.756,27.059 120.5,29.5C 116.769,30.8629 113.102,32.5295 109.5,34.5C 111.854,37.5211 114.521,40.1877 117.5,42.5C 117.167,43.5 116.5,44.1667 115.5,44.5C 112.844,42.4016 110.511,39.9016 108.5,37C 107.552,36.5172 106.552,36.3505 105.5,36.5C 105.338,38.5273 105.505,40.5273 106,42.5C 107.535,45.2937 109.702,47.2937 112.5,48.5C 111.329,49.3446 109.995,50.0113 108.5,50.5C 108.672,49.5084 108.338,48.8417 107.5,48.5C 105.465,45.9744 104.132,43.141 103.5,40C 105.265,36.0482 105.765,31.8816 105,27.5C 103.447,25.3063 101.281,24.1396 98.5,24C 96.9142,21.6056 95.2475,19.4389 93.5,17.5C 94.5137,16.3263 95.847,15.6596 97.5,15.5C 97.1667,19.8333 99.1667,21.8333 103.5,21.5C 103.5,19.1667 103.5,16.8333 103.5,14.5 Z"/></g>
<g><path style="opacity:1" fill="#f7e7e3" d="M 117.5,42.5 C 114.521,40.1877 111.854,37.5211 109.5,34.5C 113.102,32.5295 116.769,30.8629 120.5,29.5C 126.381,29.2909 132.214,28.6242 138,27.5C 143.353,26.9147 144.687,28.9147 142,33.5C 135.986,35.7066 129.819,37.5399 123.5,39C 121.121,39.7162 119.121,40.8828 117.5,42.5 Z"/></g>
<g><path style="opacity:1" fill="#dde3e3" d="M 318.5,49.5 C 316.737,52.4412 314.737,55.2745 312.5,58C 312.974,59.7043 313.141,61.5377 313,63.5C 313.708,64.3805 314.542,65.0472 315.5,65.5C 316.167,65.5 316.5,65.8333 316.5,66.5C 312.467,66.6914 310.967,68.6914 312,72.5C 315.592,75.5302 319.758,76.8636 324.5,76.5C 328.981,78.738 332.648,81.9047 335.5,86C 332.92,88.9716 329.92,89.3049 326.5,87C 323.966,85.1514 321.3,83.4847 318.5,82C 309.12,80.2708 299.787,78.4374 290.5,76.5C 286.23,77.8789 281.896,79.0456 277.5,80C 245.993,92.0315 236.827,113.865 250,145.5C 259.869,163.718 270.202,181.718 281,199.5C 294.57,233.368 286.737,260.868 257.5,282C 314.499,282.5 371.499,282.667 428.5,282.5C 434.833,282.5 441.167,282.5 447.5,282.5C 462.5,282.5 477.5,282.5 492.5,282.5C 492.5,282.833 492.5,283.167 492.5,283.5C 328.167,283.5 163.833,283.5 -0.5,283.5C -0.5,283.167 -0.5,282.833 -0.5,282.5C 14.5,282.5 29.5,282.5 44.5,282.5C 56.5,282.5 68.5,282.5 80.5,282.5C 130.168,282.667 179.834,282.5 229.5,282C 247.838,274.071 261.671,261.238 271,243.5C 272.716,230.12 271.05,217.12 266,204.5C 255.079,184.993 244.412,165.326 234,145.5C 231.162,136.889 229.996,128.056 230.5,119C 229.688,107.408 232.521,96.9079 239,87.5C 254.263,72.0521 272.763,63.5521 294.5,62C 301.596,56.9076 308.096,51.0743 314,44.5C 315.429,41.2377 316.929,38.0711 318.5,35C 319.449,34.3828 320.282,34.5494 321,35.5C 322.436,40.4523 321.603,45.119 318.5,49.5 Z"/></g>
<g><path style="opacity:1" fill="#dde3e3" d="M 601.5,282.5 C 601.5,282.833 601.5,283.167 601.5,283.5C 565.167,283.5 528.833,283.5 492.5,283.5C 492.5,283.167 492.5,282.833 492.5,282.5C 488.278,275.075 484.112,267.075 480,258.5C 473.547,231.458 479.547,207.792 498,187.5C 509.333,174.833 521.333,162.833 534,151.5C 536.95,146.882 540.284,142.548 544,138.5C 551.119,126.451 553.453,113.451 551,99.5C 550.358,91.8906 547.858,85.0572 543.5,79C 534.183,76.5073 525.183,73.174 516.5,69C 513.79,67.5402 513.124,65.5402 514.5,63C 517.84,64.0927 521.173,65.5927 524.5,67.5C 525.614,66.277 525.781,64.9437 525,63.5C 518.73,59.1217 513.23,53.955 508.5,48C 509.059,45.8125 510.393,45.1458 512.5,46C 516.72,50.723 521.387,54.8897 526.5,58.5C 527.663,56.4503 527.496,54.4503 526,52.5C 522.1,48.6003 518.267,44.7669 514.5,41C 515.059,38.8125 516.393,38.1458 518.5,39C 523.344,42.7329 527.677,46.8996 531.5,51.5C 532.663,49.4503 532.496,47.4503 531,45.5C 527.935,42.938 525.435,39.938 523.5,36.5C 523.887,35.2801 524.72,34.6135 526,34.5C 529.614,37.9503 533.114,41.6169 536.5,45.5C 537.325,46.3857 538.325,46.719 539.5,46.5C 538.594,43.5184 537.26,40.685 535.5,38C 535.613,36.7202 536.28,35.8869 537.5,35.5C 541.667,39.8333 545.833,44.1667 550,48.5C 553.374,53.3151 555.541,58.6485 556.5,64.5C 556.32,65.5539 555.987,66.5539 555.5,67.5C 558.157,70.1466 560.323,73.1466 562,76.5C 569.436,95.7904 570.436,115.457 565,135.5C 559.998,144.83 553.998,153.496 547,161.5C 530.178,175.649 515.512,191.649 503,209.5C 491.043,237.543 496.21,261.71 518.5,282C 546.165,282.5 573.831,282.667 601.5,282.5 Z"/></g>
<g><path style="opacity:1" fill="#f7e7e3" d="M 115.5,44.5 C 115.262,46.4044 114.262,47.7377 112.5,48.5C 109.702,47.2937 107.535,45.2937 106,42.5C 105.505,40.5273 105.338,38.5273 105.5,36.5C 106.552,36.3505 107.552,36.5172 108.5,37C 110.511,39.9016 112.844,42.4016 115.5,44.5 Z"/></g>
<g><path style="opacity:1" fill="#e69379" d="M 107.5,48.5 C 108.338,48.8417 108.672,49.5084 108.5,50.5C 103.994,51.3112 99.6604,51.3112 95.5,50.5C 99.7329,50.4613 103.733,49.7947 107.5,48.5 Z"/></g>
<g><path style="opacity:1" fill="#bfd0d1" d="M 318.5,49.5 C 318.157,51.4832 318.824,52.8166 320.5,53.5C 318.552,54.1312 316.719,55.1312 315,56.5C 314.383,57.4491 314.549,58.2825 315.5,59C 319.673,58.4343 323.673,57.9343 327.5,57.5C 327.5,58.5 327.5,59.5 327.5,60.5C 323.257,60.0608 318.924,60.0608 314.5,60.5C 314.527,62.1993 315.194,63.5326 316.5,64.5C 315.833,64.5 315.5,64.8333 315.5,65.5C 314.542,65.0472 313.708,64.3805 313,63.5C 313.141,61.5377 312.974,59.7043 312.5,58C 314.737,55.2745 316.737,52.4412 318.5,49.5 Z"/></g>
<g><path style="opacity:1" fill="#dde3e3" d="M 327.5,57.5 C 323.673,57.9343 319.673,58.4343 315.5,59C 314.549,58.2825 314.383,57.4491 315,56.5C 316.719,55.1312 318.552,54.1312 320.5,53.5C 321.594,52.4183 322.927,51.7517 324.5,51.5C 327.56,52.7981 328.56,54.7981 327.5,57.5 Z"/></g>
<g><path style="opacity:1" fill="#dde3e3" d="M 327.5,60.5 C 328.536,62.3911 328.536,64.2245 327.5,66C 323.638,66.7577 319.972,66.2577 316.5,64.5C 315.194,63.5326 314.527,62.1993 314.5,60.5C 318.924,60.0608 323.257,60.0608 327.5,60.5 Z"/></g>
<g><path style="opacity:1" fill="#afc2c3" d="M 316.5,66.5 C 316.5,66.8333 316.5,67.1667 316.5,67.5C 315.791,68.404 314.791,68.7373 313.5,68.5C 313.297,70.3904 313.963,71.8904 315.5,73C 318.393,74.1488 321.393,74.6488 324.5,74.5C 324.5,75.1667 324.5,75.8333 324.5,76.5C 319.758,76.8636 315.592,75.5302 312,72.5C 310.967,68.6914 312.467,66.6914 316.5,66.5 Z"/></g>
<g><path style="opacity:1" fill="#dde3e3" d="M 316.5,67.5 C 319.187,67.3359 321.854,67.5026 324.5,68C 327.134,70.2933 327.134,72.46 324.5,74.5C 321.393,74.6488 318.393,74.1488 315.5,73C 313.963,71.8904 313.297,70.3904 313.5,68.5C 314.791,68.7373 315.791,68.404 316.5,67.5 Z"/></g>
<g><path style="opacity:1" fill="#ee8462" d="M 29.5,91.5 C 28.1791,98.0947 27.5124,104.761 27.5,111.5C 26.8826,111.389 26.3826,111.056 26,110.5C 25.1233,103.696 26.2899,97.3627 29.5,91.5 Z"/></g>
<g><path style="opacity:1" fill="#ec7a57" d="M 393.5,154.5 C 382.828,154.333 372.161,154.5 361.5,155C 359.846,155.608 358.179,156.108 356.5,156.5C 357.347,155.034 358.68,154.2 360.5,154C 371.689,151.851 382.689,152.018 393.5,154.5 Z"/></g>
<g><path style="opacity:1" fill="#f7e7e3" d="M 393.5,154.5 C 403.769,157.915 411.936,164.248 418,173.5C 424.054,185.478 427.887,198.144 429.5,211.5C 429.335,214.85 429.502,218.183 430,221.5C 430.383,222.056 430.883,222.389 431.5,222.5C 432.827,229.112 433.827,235.778 434.5,242.5C 435.608,248.416 436.442,254.416 437,260.5C 437.728,263.187 438.895,265.52 440.5,267.5C 442.5,271.833 444.5,276.167 446.5,280.5C 443.854,281.164 441.021,281.498 438,281.5C 434.567,281.403 431.4,280.737 428.5,279.5C 426.877,275.022 425.544,270.355 424.5,265.5C 423.687,261.191 422.853,256.857 422,252.5C 421.617,251.944 421.117,251.611 420.5,251.5C 419.093,243.019 418.093,234.352 417.5,225.5C 417.785,222.171 417.118,219.171 415.5,216.5C 414.203,209.07 412.37,201.736 410,194.5C 406.498,183.67 399.998,175.17 390.5,169C 382.548,167.558 374.548,167.225 366.5,168C 363.01,170.911 359.344,173.578 355.5,176C 349.046,181.742 345.379,188.908 344.5,197.5C 343.474,200.457 342.807,203.624 342.5,207C 342.608,208.681 343.275,209.848 344.5,210.5C 348.559,216.954 351.226,223.954 352.5,231.5C 352.799,233.604 352.466,235.604 351.5,237.5C 350.614,236.675 350.281,235.675 350.5,234.5C 349.167,234.5 347.833,234.5 346.5,234.5C 346.665,237.518 346.498,240.518 346,243.5C 345.583,242.244 344.75,241.577 343.5,241.5C 343.688,239.897 343.188,238.563 342,237.5C 341.501,242.823 341.334,248.156 341.5,253.5C 340.178,253.67 339.011,253.337 338,252.5C 337.515,246.742 336.515,241.075 335,235.5C 334.617,236.056 334.117,236.389 333.5,236.5C 332.834,241.349 332.167,246.349 331.5,251.5C 330.672,247.204 330.172,242.871 330,238.5C 329.617,237.944 329.117,237.611 328.5,237.5C 327.837,235.958 327.17,234.291 326.5,232.5C 325.708,234.465 325.041,236.465 324.5,238.5C 323.675,239.386 322.675,239.719 321.5,239.5C 321.5,235.833 321.5,232.167 321.5,228.5C 321.249,222.154 323.416,216.82 328,212.5C 326.154,187.855 335.654,169.189 356.5,156.5C 358.179,156.108 359.846,155.608 361.5,155C 372.161,154.5 382.828,154.333 393.5,154.5 Z"/></g>
<g><path style="opacity:1" fill="#fccdbc" d="M 344.5,197.5 C 344.5,201.833 344.5,206.167 344.5,210.5C 343.275,209.848 342.608,208.681 342.5,207C 342.807,203.624 343.474,200.457 344.5,197.5 Z"/></g>
<g><path style="opacity:1" fill="#ed8565" d="M 429.5,211.5 C 431.011,214.544 431.678,217.878 431.5,221.5C 431.5,221.833 431.5,222.167 431.5,222.5C 430.883,222.389 430.383,222.056 430,221.5C 429.502,218.183 429.335,214.85 429.5,211.5 Z"/></g>
<g><path style="opacity:1" fill="#efa389" d="M 415.5,216.5 C 417.118,219.171 417.785,222.171 417.5,225.5C 416.343,222.727 415.676,219.727 415.5,216.5 Z"/></g>
<g><path style="opacity:1" fill="#e89276" d="M 321.5,228.5 C 321.5,232.167 321.5,235.833 321.5,239.5C 320.305,239.134 319.639,238.301 319.5,237C 320.035,234.004 320.702,231.171 321.5,228.5 Z"/></g>
<g><path style="opacity:1" fill="#fde4db" d="M 431.5,221.5 C 433.045,222.23 433.878,223.563 434,225.5C 435.901,236.103 437.401,246.769 438.5,257.5C 437.639,252.391 436.306,247.391 434.5,242.5C 433.827,235.778 432.827,229.112 431.5,222.5C 431.5,222.167 431.5,221.833 431.5,221.5 Z"/></g>
<g><path style="opacity:1" fill="#f17a55" d="M 352.5,231.5 C 353.117,231.611 353.617,231.944 354,232.5C 354.373,234.698 354.873,236.865 355.5,239C 355.333,240.5 354.5,241.333 353,241.5C 351.311,240.142 349.978,238.475 349,236.5C 348.924,240.819 349.091,245.152 349.5,249.5C 344.908,248.957 342.908,246.29 343.5,241.5C 344.75,241.577 345.583,242.244 346,243.5C 346.498,240.518 346.665,237.518 346.5,234.5C 347.833,234.5 349.167,234.5 350.5,234.5C 350.281,235.675 350.614,236.675 351.5,237.5C 352.466,235.604 352.799,233.604 352.5,231.5 Z"/></g>
<g><path style="opacity:1" fill="#eb815f" d="M 434.5,242.5 C 436.306,247.391 437.639,252.391 438.5,257.5C 438.959,260.877 439.626,264.211 440.5,267.5C 438.895,265.52 437.728,263.187 437,260.5C 436.442,254.416 435.608,248.416 434.5,242.5 Z"/></g>
<g><path style="opacity:1" fill="#e77552" d="M 333.5,236.5 C 333.5,241.833 333.5,247.167 333.5,252.5C 332.167,252.5 330.833,252.5 329.5,252.5C 329.497,247.473 329.164,242.473 328.5,237.5C 329.117,237.611 329.617,237.944 330,238.5C 330.172,242.871 330.672,247.204 331.5,251.5C 332.167,246.349 332.834,241.349 333.5,236.5 Z"/></g>
<g><path style="opacity:1" fill="#eb8262" d="M 420.5,251.5 C 421.117,251.611 421.617,251.944 422,252.5C 422.853,256.857 423.687,261.191 424.5,265.5C 422.112,261.249 420.779,256.583 420.5,251.5 Z"/></g>
<g><path style="opacity:1" fill="#cf795f" d="M 428.5,279.5 C 431.4,280.737 434.567,281.403 438,281.5C 441.021,281.498 443.854,281.164 446.5,280.5C 447.338,280.842 447.672,281.508 447.5,282.5C 441.167,282.5 434.833,282.5 428.5,282.5C 428.5,281.5 428.5,280.5 428.5,279.5 Z"/></g>
</svg>
