<?xml version="1.0" encoding="UTF-8"?>
<!DOCTYPE svg PUBLIC "-//W3C//DTD SVG 1.1//EN" "http://www.w3.org/Graphics/SVG/1.1/DTD/svg11.dtd">
<svg xmlns="http://www.w3.org/2000/svg" version="1.1" width="416px" height="416px" style="shape-rendering:geometricPrecision; text-rendering:geometricPrecision; image-rendering:optimizeQuality; fill-rule:evenodd; clip-rule:evenodd" xmlns:xlink="http://www.w3.org/1999/xlink">
<g><path style="opacity:1" fill="#151515" d="M 274.5,213.5 C 274.108,211.821 273.608,210.154 273,208.5C 272.5,218.161 272.334,227.828 272.5,237.5C 271.914,243.858 271.08,250.191 270,256.5C 266.797,262.136 262.797,262.802 258,258.5C 256.725,256.283 255.725,253.949 255,251.5C 254.51,244.109 255.01,236.775 256.5,229.5C 255.777,221.489 254.943,213.489 254,205.5C 250.598,212.237 245.765,217.737 239.5,222C 234.5,222.667 229.5,222.667 224.5,222C 219.131,220.422 216.965,216.922 218,211.5C 221.848,208.198 226.348,206.698 231.5,207C 232.211,205.745 233.044,204.579 234,203.5C 235.39,191.194 236.057,178.86 236,166.5C 232.619,173.302 229.619,180.302 227,187.5C 224.872,190.63 222.372,193.463 219.5,196C 215.961,197.504 212.295,197.837 208.5,197C 206.876,195.883 205.876,194.383 205.5,192.5C 208.864,182.655 211.697,172.655 214,162.5C 218.214,154.739 221.881,146.739 225,138.5C 230.635,128.196 238.802,120.696 249.5,116C 260.217,116.685 270.884,116.352 281.5,115C 292.585,119.75 299.751,127.917 303,139.5C 304.053,152.491 305.053,165.491 306,178.5C 311.232,192.747 313.566,207.414 313,222.5C 310.202,226.181 306.869,226.514 303,223.5C 302,221.833 301,220.167 300,218.5C 297.464,208.227 294.131,198.227 290,188.5C 291.293,205.93 292.46,223.43 293.5,241C 294.88,247.419 292.547,251.586 286.5,253.5C 281.8,252.299 278.966,249.299 278,244.5C 277.161,234.119 275.995,223.786 274.5,213.5 Z"/></g>
<g><path style="opacity:1" fill="#f8f8f8" d="M 298.5,137.5 C 298.336,140.187 298.503,142.854 299,145.5C 299.278,144.584 299.778,143.918 300.5,143.5C 301.676,150.496 301.676,157.496 300.5,164.5C 294.491,166.273 288.824,168.607 283.5,171.5C 289.374,169.432 295.374,167.765 301.5,166.5C 302.186,170.287 301.186,173.454 298.5,176C 299.996,176.507 301.163,176.007 302,174.5C 305.973,188.724 309.473,203.057 312.5,217.5C 310.933,224.681 307.767,225.348 303,219.5C 299.775,206.941 295.775,194.608 291,182.5C 290.632,181.09 289.799,180.09 288.5,179.5C 288.5,200.341 289.5,221.174 291.5,242C 291.554,244.873 290.888,247.54 289.5,250C 283.317,250.827 280.15,247.994 280,241.5C 278.335,224.179 275.835,207.013 272.5,190C 273.833,189.333 275.167,188.667 276.5,188C 274.167,187.333 271.833,187.333 269.5,188C 271.147,210.5 270.647,233 268,255.5C 265.633,258.932 262.966,259.265 260,256.5C 258.101,253.626 257.267,250.459 257.5,247C 257.973,242.01 258.307,237.01 258.5,232C 257.025,218.832 256.358,205.832 256.5,193C 257.833,192.667 259.167,192.333 260.5,192C 257.962,191.455 255.629,190.788 253.5,190C 252.597,195.108 251.763,200.275 251,205.5C 247.525,210.925 243.691,215.425 239.5,219C 236.607,220.149 233.607,220.649 230.5,220.5C 230.423,219.25 229.756,218.417 228.5,218C 226.866,217.506 225.199,217.34 223.5,217.5C 219.958,216.816 218.958,214.816 220.5,211.5C 224.7,210.863 228.866,210.196 233,209.5C 233.414,209.957 233.914,210.291 234.5,210.5C 234.032,208.887 234.699,207.387 236.5,206C 238.126,206.195 239.793,206.195 241.5,206C 238.953,205.564 237.62,204.064 237.5,201.5C 238.618,189.854 239.951,178.521 241.5,167.5C 240.365,166.526 239.365,165.359 238.5,164C 237.5,163.333 236.5,163.333 235.5,164C 232.707,167.081 230.54,170.581 229,174.5C 227.601,175.227 226.101,175.727 224.5,176C 225.833,176.333 227.167,176.667 228.5,177C 226.271,183.019 222.937,188.353 218.5,193C 215.607,194.149 212.607,194.649 209.5,194.5C 209.298,192.011 209.798,189.677 211,187.5C 211.667,190.167 212.333,190.167 213,187.5C 213.159,182.084 213.826,176.75 215,171.5C 215.556,173.595 216.056,173.762 216.5,172C 215.539,169.165 215.706,166.332 217,163.5C 219,159.5 221,155.5 223,151.5C 226.265,140 233.099,130.166 243.5,122C 247.884,119.792 252.551,118.959 257.5,119.5C 258.263,120.268 259.263,120.768 260.5,121C 259.304,121.654 259.304,122.154 260.5,122.5C 261.739,122.058 262.739,121.391 263.5,120.5C 269.05,118.701 274.717,117.868 280.5,118C 289.511,121.84 295.511,128.34 298.5,137.5 Z"/></g>
<g><path style="opacity:1" fill="#8b8b8b" d="M 257.5,119.5 C 259.621,119.325 261.621,119.659 263.5,120.5C 262.739,121.391 261.739,122.058 260.5,122.5C 259.304,122.154 259.304,121.654 260.5,121C 259.263,120.768 258.263,120.268 257.5,119.5 Z"/></g>
<g><path style="opacity:1" fill="#7f7f7f" d="M 298.5,137.5 C 299.285,139.374 299.952,141.374 300.5,143.5C 299.778,143.918 299.278,144.584 299,145.5C 298.503,142.854 298.336,140.187 298.5,137.5 Z"/></g>
<g><path style="opacity:1" fill="#131313" d="M 102.5,192.5 C 102.414,191.504 102.748,190.671 103.5,190C 108.423,189.045 111.923,190.879 114,195.5C 117.132,205.895 120.465,216.229 124,226.5C 123.142,206.818 122.142,187.151 121,167.5C 123.935,160.85 128.269,159.85 134,164.5C 135.275,166.717 136.275,169.051 137,171.5C 137.53,182.6 138.863,193.6 141,204.5C 141.168,191.135 141.834,177.801 143,164.5C 143.039,159.072 145.539,155.406 150.5,153.5C 154.768,154.6 157.601,157.266 159,161.5C 157.708,177.242 158.374,192.909 161,208.5C 166.511,195.83 176.011,190.664 189.5,193C 196.978,195.59 198.311,199.923 193.5,206C 189.858,206.914 186.192,207.748 182.5,208.5C 181.469,209.7 180.635,211.034 180,212.5C 178.754,223.835 178.087,235.168 178,246.5C 178.667,247.833 179.333,247.833 180,246.5C 182.529,240.579 184.863,234.579 187,228.5C 190.759,219.871 197.259,216.371 206.5,218C 208.396,219.808 208.896,221.975 208,224.5C 205.198,233.376 202.864,242.376 201,251.5C 195.703,262.748 190.037,273.748 184,284.5C 178.488,292.517 170.988,297.517 161.5,299.5C 153.251,298.054 145.085,298.387 137,300.5C 122.184,297.013 113.517,287.68 111,272.5C 109.881,261.532 109.215,250.532 109,239.5C 105.611,226.447 102.778,213.28 100.5,200C 100.408,197.179 101.074,194.679 102.5,192.5 Z"/></g>
<g><path style="opacity:1" fill="#f7f7f7" d="M 148.5,157.5 C 153.425,155.865 156.258,157.865 157,163.5C 157.56,169.903 157.06,176.237 155.5,182.5C 157.343,195.774 158.343,209.107 158.5,222.5C 157.127,222.343 155.793,222.51 154.5,223C 156.441,223.304 158.107,224.137 159.5,225.5C 160.086,225.291 160.586,224.957 161,224.5C 161.383,212.893 165.383,203.893 173,197.5C 173.333,198.167 173.667,198.833 174,199.5C 174.575,195.758 176.741,194.092 180.5,194.5C 182.455,194.724 184.121,195.391 185.5,196.5C 185.5,197.167 185.833,197.5 186.5,197.5C 188.527,197.338 190.527,197.505 192.5,198C 194.698,199.67 195.032,201.67 193.5,204C 191.19,204.497 188.857,204.663 186.5,204.5C 183.881,204.768 181.381,204.435 179,203.5C 178.472,204.816 178.972,205.483 180.5,205.5C 180.023,207.464 178.856,208.798 177,209.5C 174.842,208.549 172.675,208.049 170.5,208C 172,209.115 173.667,209.948 175.5,210.5C 175.971,222.815 175.471,235.148 174,247.5C 172.612,246.446 171.112,246.28 169.5,247C 173.02,247.504 175.52,249.337 177,252.5C 180.407,248.682 183.574,244.682 186.5,240.5C 187.376,239.749 188.376,239.249 189.5,239C 188.376,238.751 187.376,238.251 186.5,237.5C 188.265,230.359 192.265,224.859 198.5,221C 201.053,220.149 203.386,220.482 205.5,222C 205.007,224.261 204.174,226.761 203,229.5C 202.667,228.5 202.333,227.5 202,226.5C 201.662,231.547 200.995,236.547 200,241.5C 198.984,242.634 198.317,242.301 198,240.5C 197.464,242.567 197.964,244.401 199.5,246C 194.902,256.038 190.402,266.205 186,276.5C 180.733,285.101 173.566,291.601 164.5,296C 160.107,296.206 155.773,295.706 151.5,294.5C 137.345,300.353 126.345,296.686 118.5,283.5C 118.575,279.103 118.075,274.77 117,270.5C 116.667,272.167 116.333,273.833 116,275.5C 115.362,272.464 115.528,269.464 116.5,266.5C 116.333,265.833 116.167,265.167 116,264.5C 115.667,265.5 115.333,266.5 115,267.5C 114.502,265.473 114.669,263.473 115.5,261.5C 115.333,260.833 115.167,260.167 115,259.5C 114.667,260.5 114.333,261.5 114,262.5C 113.814,259.964 113.314,257.631 112.5,255.5C 112.215,253.712 112.548,252.045 113.5,250.5C 121.157,248.505 128.49,245.672 135.5,242C 128.005,244.438 120.338,246.605 112.5,248.5C 111.923,244.92 112.923,241.92 115.5,239.5C 114.645,238.707 113.811,239.04 113,240.5C 107.727,224.858 104.227,208.858 102.5,192.5C 105.258,190.952 107.758,191.285 110,193.5C 113.004,197.688 114.171,202.188 113.5,207C 114.701,207.903 115.535,209.069 116,210.5C 118.534,218.602 121.368,226.602 124.5,234.5C 125.325,235.386 126.325,235.719 127.5,235.5C 127.5,234.167 127.5,232.833 127.5,231.5C 128.391,230.739 129.058,229.739 129.5,228.5C 128.299,226.003 127.299,223.669 126.5,221.5C 125.367,205.507 124.367,189.507 123.5,173.5C 123.849,169.82 125.516,166.82 128.5,164.5C 132.723,165.931 134.723,168.931 134.5,173.5C 134.339,176.81 134.339,179.81 134.5,182.5C 137.47,196.692 139.804,211.026 141.5,225.5C 136.436,225.698 136.603,226.365 142,227.5C 143.5,227 145,226.5 146.5,226C 145.552,225.517 144.552,225.351 143.5,225.5C 143.896,222.867 144.229,220.2 144.5,217.5C 144.599,213.143 144.599,208.476 144.5,203.5C 143.244,189.701 143.578,175.701 145.5,161.5C 146.222,161.918 146.722,162.584 147,163.5C 147.45,161.481 148.283,159.648 149.5,158C 149.272,157.601 148.938,157.435 148.5,157.5 Z"/></g>
<g><path style="opacity:1" fill="#636363" d="M 148.5,157.5 C 148.938,157.435 149.272,157.601 149.5,158C 148.283,159.648 147.45,161.481 147,163.5C 146.722,162.584 146.222,161.918 145.5,161.5C 146.026,159.77 147.026,158.436 148.5,157.5 Z"/></g>
<g><path style="opacity:1" fill="#616161" d="M 128.5,164.5 C 125.516,166.82 123.849,169.82 123.5,173.5C 121.943,169.247 123.277,165.913 127.5,163.5C 128.107,163.624 128.44,163.957 128.5,164.5 Z"/></g>
<g><path style="opacity:1" fill="#4a4a4a" d="M 260.5,166.5 C 261.552,166.351 262.552,166.517 263.5,167C 260.068,169.072 256.402,169.738 252.5,169C 255.457,168.721 258.123,167.887 260.5,166.5 Z"/></g>
<g><path style="opacity:1" fill="#393939" d="M 241.5,167.5 C 244.522,167.804 247.522,168.304 250.5,169C 247.137,169.927 244.137,169.427 241.5,167.5 Z"/></g>
<g><path style="opacity:1" fill="#363636" d="M 283.5,171.5 C 281.575,173.462 279.242,174.295 276.5,174C 278.65,172.589 280.984,171.755 283.5,171.5 Z"/></g>
<g><path style="opacity:1" fill="#909090" d="M 134.5,173.5 C 135.833,176.5 135.833,179.5 134.5,182.5C 134.339,179.81 134.339,176.81 134.5,173.5 Z"/></g>
<g><path style="opacity:1" fill="#6b6b6b" d="M 302.5,193.5 C 301.153,194.028 299.819,194.195 298.5,194C 299.818,192.37 301.151,192.203 302.5,193.5 Z"/></g>
<g><path style="opacity:1" fill="#595959" d="M 302.5,193.5 C 304.975,193.747 304.975,194.413 302.5,195.5C 301.537,195.03 301.537,194.363 302.5,193.5 Z"/></g>
<g><path style="opacity:1" fill="#939393" d="M 186.5,197.5 C 185.833,197.5 185.5,197.167 185.5,196.5C 186.749,194.028 188.415,193.861 190.5,196C 188.942,196.21 187.609,196.71 186.5,197.5 Z"/></g>
<g><path style="opacity:1" fill="#959595" d="M 186.5,204.5 C 184.735,205.461 182.735,205.795 180.5,205.5C 178.972,205.483 178.472,204.816 179,203.5C 181.381,204.435 183.881,204.768 186.5,204.5 Z"/></g>
<g><path style="opacity:1" fill="#aeaeae" d="M 144.5,203.5 C 144.599,208.476 144.599,213.143 144.5,217.5C 143.167,212.833 143.167,208.167 144.5,203.5 Z"/></g>
<g><path style="opacity:1" fill="#959595" d="M 109.5,206.5 C 110.218,208.246 111.218,208.912 112.5,208.5C 111.758,209.287 110.925,209.953 110,210.5C 109.5,209.333 108.667,208.5 107.5,208C 108.416,207.722 109.082,207.222 109.5,206.5 Z"/></g>
<g><path style="opacity:1" fill="#4b4b4b" d="M 260.5,207.5 C 268.176,207.456 268.342,208.123 261,209.5C 260.536,208.906 260.369,208.239 260.5,207.5 Z"/></g>
<g><path style="opacity:1" fill="#464646" d="M 132.5,206.5 C 134.347,206.234 135.014,206.568 134.5,207.5C 132.265,208.752 129.931,209.252 127.5,209C 129.315,208.243 130.981,207.41 132.5,206.5 Z"/></g>
<g><path style="opacity:1" fill="#494949" d="M 278.5,207.5 C 282.243,207.459 282.41,208.126 279,209.5C 278.536,208.906 278.369,208.239 278.5,207.5 Z"/></g>
<g><path style="opacity:1" fill="#626262" d="M 223.5,217.5 C 225.199,217.34 226.866,217.506 228.5,218C 229.756,218.417 230.423,219.25 230.5,220.5C 228.801,220.66 227.134,220.494 225.5,220C 224.244,219.583 223.577,218.75 223.5,217.5 Z"/></g>
<g><path style="opacity:1" fill="#707070" d="M 111.5,219.5 C 112.02,221.101 113.353,221.768 115.5,221.5C 114.277,222.614 112.944,222.781 111.5,222C 110.402,221.23 110.402,220.397 111.5,219.5 Z"/></g>
<g><path style="opacity:1" fill="#868686" d="M 274.5,213.5 C 273.833,221.5 273.167,229.5 272.5,237.5C 272.334,227.828 272.5,218.161 273,208.5C 273.608,210.154 274.108,211.821 274.5,213.5 Z"/></g>
<g><path style="opacity:1" fill="#a6a6a6" d="M 126.5,221.5 C 127.299,223.669 128.299,226.003 129.5,228.5C 129.058,229.739 128.391,230.739 127.5,231.5C 127.01,228.453 126.676,225.12 126.5,221.5 Z"/></g>
<g><path style="opacity:1" fill="#555555" d="M 281.5,226.5 C 283.515,225.147 285.182,225.647 286.5,228C 285.167,228.667 283.833,228.667 282.5,228C 284.932,226.913 284.598,226.413 281.5,226.5 Z"/></g>
<g><path style="opacity:1" fill="#454545" d="M 139.5,238.5 C 141.379,238.393 141.712,238.893 140.5,240C 137.125,240.632 136.791,240.132 139.5,238.5 Z"/></g>
<g><path style="opacity:1" fill="#3d3d3d" d="M 156.5,245.5 C 158.527,245.338 160.527,245.505 162.5,246C 159.515,246.868 156.515,247.201 153.5,247C 154.737,246.768 155.737,246.268 156.5,245.5 Z"/></g>
<g><path style="opacity:1" fill="#a7a7a7" d="M 112.5,255.5 C 113.314,257.631 113.814,259.964 114,262.5C 114.333,261.5 114.667,260.5 115,259.5C 115.167,260.167 115.333,260.833 115.5,261.5C 114.669,263.473 114.502,265.473 115,267.5C 115.333,266.5 115.667,265.5 116,264.5C 116.167,265.167 116.333,265.833 116.5,266.5C 115.528,269.464 115.362,272.464 116,275.5C 116.333,273.833 116.667,272.167 117,270.5C 118.075,274.77 118.575,279.103 118.5,283.5C 114.157,274.811 112.157,265.478 112.5,255.5 Z"/></g>
</svg>